<?xml version="1.0" encoding="UTF-8"?>
<svg id="_레이어_1" data-name="레이어_1" xmlns="http://www.w3.org/2000/svg" version="1.1" viewBox="0 0 1000 1500">
  <!-- Generator: Adobe Illustrator 29.5.0, SVG Export Plug-In . SVG Version: 2.1.0 Build 137)  -->
  <defs>
    <style>
      .st0 {
        stroke: #000;
        stroke-miterlimit: 10;
        stroke-width: .5px;
      }
    </style>
  </defs>
  <line class="st0" x1="418.4" x2="418.4" y2="1133.58"/>
  <g>
    <g>
      <path d="M173,239.41c80.4-57,98.1-74.1,98.1-98.4,0-19.5-12-30.3-30-30.3-14.4,0-26.4,8.4-37.2,23.4l-1.8-1.5c14.4-21.9,33-35.7,53.7-35.7,21.9,0,37.2,15.3,37.2,33.3,0,29.7-29.1,47.4-92.4,92.7v.6h71.7c4.8,0,15-11.7,28.5-34.2l1.8-3,1.5.3-24,55.2h-106.8l-.3-2.4Z"/>
      <path d="M286.7,279.01c.3-7.5,7.2-13.5,15-13.2,12,.9,16.5,15.9,11.1,28.8,5.4,1.8,9.3,3.3,15.3,3.6,23.7,1.5,46.8-24,48.3-54.9,2.1-31.5-21.6-52.2-60.6-59.1l29.7-82.8h72.9l-8.4,20.7h-68.4l-15.6,44.7c45.6,8.1,71.1,34.5,69.3,68.1-1.8,34.2-35.4,69.6-77.4,66.6-22.2-1.5-32.1-10.2-31.2-22.5Z"/>
    </g>
    <g>
      <path d="M148.4,431.7c0-44.4,33-85.5,75.6-85.5,36.3,0,58.8,26.7,58.8,63.6,0,46.5-33.3,84.9-75,84.9-37.2,0-59.4-26.1-59.4-63ZM260.6,394.8c0-27.9-12.3-45.6-34.2-45.6-32.1,0-55.8,45-55.8,98.7,0,27.9,11.7,44.4,34.5,44.4,31.2,0,55.5-46.5,55.5-97.5Z"/>
      <path d="M404.31,371.4l-.6-1.2h-60.3c-26.1,0-34.2,4.8-43.8,24l-1.5,3-1.8-.3,15.3-46.2h106.8v1.2l-111,194.4h-16.5l113.4-174.9Z"/>
    </g>
    <g>
      <path d="M188.91,738.6l10.2-.3c9.9-.3,13.5-1.2,14.1-4.8l25.8-123.9-29.7-4.2.9-1.5,51.6-7.2-29.4,137.4c-.6,2.4,1.5,3.6,15.9,4.2l8.4.3.6,1.8h-69.3c-.3,0,.9-1.8.9-1.8Z"/>
      <path d="M258.51,782.7c60.9-3.6,102.6-43.2,121.2-85.2h-.6c-13.8,10.5-30,17.1-46.2,17.1-29.1,0-43.5-19.8-43.5-46.8,0-39.3,31.8-73.8,66.9-73.8s55.5,28.8,55.5,62.7c0,62.1-60.6,127.2-153.6,128.1l.3-2.1ZM381.81,692.4c6.3-15.3,9.3-30.6,9.3-44.7,0-29.1-10.2-50.7-34.2-50.7s-44.7,30.3-44.7,65.4c0,24.3,9.9,43.2,34.8,43.2,12,0,23.1-4.2,34.8-13.2Z"/>
    </g>
  </g>
  <g>
    <g>
      <g>
        <path d="M539.35,1276.29l3.96-.44c3.85-.33,5.28-.99,5.28-1.65v-63.58c0-.77-.66-.99-6.38-1.43l-2.75-.33-.33-.66,26.29-.33c23.65,0,38.17,12.65,38.17,33.22,0,21.67-16.5,35.86-41.36,35.86h-23.21l.33-.66ZM595.89,1243.62c0-19.8-10.56-34.43-32.12-34.43h-8.03v65.12l9.13,1.43c21.01-.33,31.02-15.62,31.02-32.12Z"/>
        <path d="M608.43,1254.62c0-13.86,8.8-25.63,22.55-25.63,11,0,16.94,7.37,16.94,14.85,0,.55-.11.77-.22,1.65l-32.01-.11c-.22,1.76-.55,4.07-.55,6.05,0,13.2,7.81,22.55,17.6,22.55,7.15,0,11.33-2.64,15.51-9.02l.77.33c-4.62,7.81-10.12,12.98-18.92,12.98-11.99,0-21.67-10.67-21.67-23.65ZM640.77,1244.17c0-7.7-3.52-14.08-10.45-14.08-6.05,0-12.21,5.94-14.41,14.19l24.86-.11Z"/>
        <path d="M652.76,1253.96c0-13.75,10.67-24.97,23.98-24.97s23.76,10.67,23.76,24.31-10.67,24.97-23.76,24.97-23.98-10.67-23.98-24.31ZM693.13,1254.51c0-8.36-1.87-15.95-6.16-20.24-2.75-2.86-6.38-4.4-10.45-4.4-9.24,0-16.61,9.79-16.61,22.44,0,9.02,2.42,17.05,6.82,21.45,2.42,2.42,6.16,3.85,10.12,3.85,9.02,0,16.28-10.12,16.28-23.1Z"/>
        <path d="M703.47,1276.29l1.87-.11c3.3-.22,4.51-.22,4.51-1.54v-60.17c0-5.94-.55-7.48-4.4-7.81l-2.53-.22.11-.44,12.98-3.08v52.8l11.11-11c3.85-3.96,7.59-8.36,7.59-10.45,0-1.76-1.87-2.64-5.72-2.97l-1.43-.11-.22-.66h20.46l-.33.66-2.42.22c-5.06.44-7.48,4.18-16.28,12.98,0,0-2.2,2.2-2.09,2.31l14.19,23.1c3.08,5.06,3.74,5.94,8.47,6.38l1.21.11.33.66h-13.53l-.55-1.32-14.74-24.53-6.05,5.94v17.82c0,.88.66.99,5.39,1.32l1.54.11.33.66h-20.13l.33-.66Z"/>
        <path d="M752.75,1275.74l-1.43-12.1h.66l2.31,4.95c2.97,5.94,8.03,8.91,12.54,8.91,6.71,0,11.22-4.18,11.22-10.23,0-6.49-4.51-9.57-12.76-12.1-5.61-1.76-12.32-5.39-12.32-12.87s6.93-13.31,14.74-13.31c3.41,0,6.49.77,9.35,2.2l3.52-1.21.55,11.11-.77.11-5.06-8.47c-1.76-1.21-3.96-2.86-7.59-2.86-6.05,0-9.68,3.3-9.68,8.8,0,6.05,4.51,8.25,11,10.56,6.93,2.42,14.41,4.84,14.41,14.63,0,8.03-7.48,14.41-17.16,14.41-4.95,0-9.46-.77-13.53-2.53Z"/>
        <path d="M823.7,1268.37h-.11c-4.18,3.52-10.78,9.9-18.59,9.9-3.96,0-6.38-.99-8.58-2.97-2.42-2.42-3.3-5.94-3.3-10.12v-32.56c0-.66,0-.88-5.61-1.32l-1.54-.11-.33-.66h13.53l.11,33.22c0,6.49,3.41,10.12,9.79,10.12,5.5,0,10.01-2.75,14.19-6.49v-30.36c0-4.62-.99-5.39-5.5-5.72l-1.54-.11-.33-.66h13.64v40.48c0,2.42.44,3.63,3.85,3.96l3.19.11-.11.66-13.2,2.86.44-10.23Z"/>
      </g>
      <g>
        <path d="M456.47,1379.73c0-2.64,1.98-4.84,4.95-4.84,4.73,0,6.16,5.72,2.75,8.58,6.71.77,11.66-4.84,11.66-19.58v-63.47c0-.77-.66-1.1-6.38-1.43l-3.19-.33-.33-.66h27.06l-.33.66-4.4.44c-3.85.33-5.28.99-5.28,1.65v64.9c0,3.41-8.58,19.25-18.7,19.25-4.62,0-7.81-1.87-7.81-5.17Z"/>
        <path d="M492.88,1344.42c0-13.86,8.8-25.63,22.55-25.63,11,0,16.94,7.37,16.94,14.85,0,.55-.11.77-.22,1.65l-32.01-.11c-.22,1.76-.55,4.07-.55,6.05,0,13.2,7.81,22.55,17.6,22.55,7.15,0,11.33-2.64,15.51-9.02l.77.33c-4.62,7.81-10.12,12.98-18.92,12.98-11.99,0-21.67-10.67-21.67-23.65ZM525.22,1333.96c0-7.7-3.52-14.08-10.45-14.08-6.05,0-12.21,5.94-14.41,14.19l24.86-.11Z"/>
        <path d="M537.21,1343.75c0-13.75,10.67-24.97,23.98-24.97s23.76,10.67,23.76,24.31-10.67,24.97-23.76,24.97-23.98-10.67-23.98-24.31ZM577.58,1344.3c0-8.36-1.87-15.95-6.16-20.24-2.75-2.86-6.38-4.4-10.45-4.4-9.24,0-16.61,9.79-16.61,22.44,0,9.02,2.42,17.05,6.82,21.45,2.42,2.42,6.16,3.85,10.12,3.85,9.02,0,16.28-10.12,16.28-23.1Z"/>
        <path d="M588.79,1366.08l1.98-.11c3.41-.22,4.62-.22,4.62-1.54v-32.56c0-6.82-.77-8.36-4.51-8.69l-2.53-.33.11-.44,13.2-3.41-.33,9.9.22.33c4.07-3.63,11-10.45,18.81-10.45,3.3,0,6.05.99,7.92,2.97,2.31,2.42,3.63,5.5,3.63,10.34v32.45c0,.66,0,.99,5.39,1.43l1.65.11.33.66h-20.35l.33-.66,1.98-.11c3.85-.22,4.62-.66,4.62-1.54v-31.02c0-6.49-3.52-10.01-9.68-10.01-5.39,0-10.34,2.86-14.63,6.93v34.32c0,.88.66.99,5.61,1.32l1.43.11.44.66h-20.57l.33-.66Z"/>
        <path d="M640.49,1381.92c0-6.27,7.59-11.77,13.2-13.86v-.11c-7.37-.55-12.1-2.75-12.1-7.15,0-5.61,6.82-10.23,12.98-11.22v-.11c-5.61-1.76-10.45-7.15-10.45-13.97,0-9.57,8.03-16.61,17.82-16.61,4.18,0,8.25,1.43,11.22,3.74l12.43-2.2-.66,3.85-10.23-.44-.11.22c2.75,2.53,5.06,6.38,5.06,10.56,0,9.35-8.14,16.17-18.26,16.17-2.31,0-4.73-.55-5.72-.77-4.51.88-8.03,3.74-8.03,6.82,0,3.63,2.53,5.06,9.35,5.06,2.86,0,8.47-.33,12.43-.33,9.9,0,16.17,4.51,16.17,11.55,0,11.88-11.44,21.01-27.28,21.01-10.56,0-17.82-4.62-17.82-12.21ZM681.85,1377.86c0-6.16-4.29-9.9-13.86-10.23-3.19-.11-9.79.22-12.98.66-3.74,1.43-9.9,6.38-9.9,12.43,0,6.49,6.82,11.55,17.27,11.55,9.68,0,19.47-6.16,19.47-14.41ZM673.16,1335.5c0-9.57-4.18-15.73-11.33-15.73-6.05,0-11.22,6.16-11.22,14.63,0,9.24,4.84,15.51,11.11,15.51s11.44-5.72,11.44-14.41Z"/>
        <path d="M689.44,1366.08l1.98-.11c3.41-.22,4.62-.22,4.62-1.54v-32.56c0-6.82-.77-8.36-4.51-8.69l-2.53-.33.11-.44,13.2-3.41-.55,9.57h.11c3.63-3.63,9.79-9.79,17.05-9.79,3.74,0,6.6,1.32,8.47,3.3,1.43,1.54,2.64,3.85,2.97,6.6h.11c3.63-3.85,9.68-9.9,17.16-9.9,3.85,0,6.27,1.21,8.47,3.41,2.2,2.2,3.41,5.83,3.41,9.9v32.45c0,.66,0,.99,5.5,1.43l1.43.11.33.66h-20.35l.33-.66,1.98-.11c3.85-.22,4.51-.66,4.51-1.54v-31.02c0-6.38-3.08-10.01-9.57-10.01-5.06,0-10.56,2.75-12.76,6.27l-.11.11v34.76c0,.66,0,.99,5.5,1.43l1.54.11.33.66h-20.24l.33-.66,1.98-.11c3.74-.22,4.4-.66,4.4-1.54v-31.02c0-6.38-3.19-10.01-9.46-10.01-5.17,0-9.46,2.53-12.98,6.05v35.2c0,.88.66.99,5.61,1.32l1.43.11.44.66h-20.57l.33-.66Z"/>
        <path d="M768.86,1366.08l1.98-.11c3.41-.22,4.62-.22,4.62-1.54v-32.78c0-6.6-.77-8.14-4.51-8.47l-2.53-.33.11-.44,13.09-3.41v45.65c0,.88.66.99,5.5,1.32l1.54.11.33.66h-20.46l.33-.66ZM772.82,1303.71c0-1.87,1.43-4.84,4.73-4.84s4.51,2.97,4.51,4.84c0,1.76-1.32,4.62-4.51,4.62s-4.73-2.86-4.73-4.62Z"/>
        <path d="M791.3,1366.08l1.98-.11c3.41-.22,4.62-.22,4.62-1.54v-32.56c0-6.82-.77-8.36-4.51-8.69l-2.53-.33.11-.44,13.2-3.41-.33,9.9.22.33c4.07-3.63,11-10.45,18.81-10.45,3.3,0,6.05.99,7.92,2.97,2.31,2.42,3.63,5.5,3.63,10.34v32.45c0,.66,0,.99,5.39,1.43l1.65.11.33.66h-20.35l.33-.66,1.98-.11c3.85-.22,4.62-.66,4.62-1.54v-31.02c0-6.49-3.52-10.01-9.68-10.01-5.39,0-10.34,2.86-14.63,6.93v34.32c0,.88.66.99,5.61,1.32l1.43.11.44.66h-20.57l.33-.66Z"/>
      </g>
    </g>
    <path d="M944.02,1295.53c0,5-4.14,8.86-7.71,8.86-1.57,0-2.57-.86-2.57-2.14,0-4.28,8.57-1.71,8.57-7.28,0-4.43-3.86-7.14-8.71-7.14-9.71,0-16.57,8.28-26.28,19.28-.57.57-1.14,1.14-1.57,1.71,4.14,7.71,7.86,15.71,7.86,24.42,0,19.71-17.57,33.56-37.42,33.56-14.14,0-25.71-9.28-27.14-23.85l1.57-.43c1.29,12.85,10.85,22.57,25.42,22.57,19.71,0,33.42-13.85,33.42-33.56,0-7.43-2-14.28-5.14-21.14-8.85,10-18,20.85-32.71,20.85-11.28,0-18.14-6-18.14-14.85,0-15.57,17.42-24.14,35.42-32.56-2.29-4.43-3.71-8.43-3.71-13,0-14.42,14.42-24.99,27.14-24.99,7.57,0,12.14,4.14,12.14,10.43,0,11.57-13.71,19-31.85,27.71.29,1.14.71,2.43,1.29,3.57,1.43,3,3.43,6.43,6,11.14,1.57,2.86,3.28,5.57,4.86,8.57l1.14-1.29c9.43-10.28,17.42-19.57,27.85-19.57,5,0,10.28,3,10.28,9.14ZM903.6,1308.67c-1.14-2.29-2.29-4.43-3.57-6.57-3.86-6.71-7.57-12-10.28-16.85-22.28,10.57-28.99,18.42-28.99,30.71,0,8,4.43,13.14,12.43,13.14,13,0,22.14-11,30.42-20.42ZM891.46,1274.25c0,3,.29,5.57.71,8,18.57-8.71,28.71-15.57,28.71-26.14,0-5.28-3-9-8.71-9-11.71,0-20.71,12.43-20.71,27.14Z"/>
  </g>
</svg>