<?xml version="1.0" encoding="UTF-8"?>
<svg id="_레이어_1" data-name="레이어_1" xmlns="http://www.w3.org/2000/svg" version="1.1" viewBox="0 0 1000 300">
  <!-- Generator: Adobe Illustrator 29.5.0, SVG Export Plug-In . SVG Version: 2.1.0 Build 137)  -->
  <path d="M281.98,233.89l4.18-.44c3.85-.33,5.06-1.1,5.06-1.76v-63.36c0-.77-.44-1.1-6.16-1.54l-2.97-.33-.33-.66h30.47l-.33.66-6.6.44c-3.85.33-5.28,1.1-5.28,1.76v64.35l12.98.55c13.09-.11,16.61-7.7,21.34-18.92l.66-1.43h.66l-4.29,21.34h-49.72l.33-.66Z"/>
  <path d="M351.72,211.45c0-13.75,10.67-24.97,24.64-24.97s24.53,10.67,24.53,24.53-10.67,24.97-24.53,24.97-24.64-10.67-24.64-24.53ZM391.65,212c0-8.47-1.87-16.39-6.05-20.57-2.42-2.31-5.5-4.07-9.46-4.07-9.46,0-15.29,10.89-15.29,22.66,0,9.02,1.98,17.05,6.27,21.23,2.42,2.42,5.61,3.85,9.35,3.85,9.02,0,15.18-10.78,15.18-23.1Z"/>
  <path d="M416.07,212.33c0-14.3,10.01-25.85,24.42-25.85,8.8,0,15.84,4.07,15.84,10.12,0,2.86-2.42,5.28-4.95,5.28-2.86,0-4.95-2.09-4.95-4.62,0-3.52,2.2-4.62,2.2-5.5,0-1.43-3.74-4.4-7.92-4.4-8.8,0-16.28,8.91-16.28,21.45s7.59,21.67,17.27,21.67c6.71,0,10.78-2.2,14.85-8.8l.88.33c-4.84,8.58-10.67,13.97-19.58,13.97-12.32,0-21.78-10.45-21.78-23.65Z"/>
  <path d="M497.36,227.95v-.11c-4.18,3.96-8.91,7.7-14.08,7.7-6.49,0-11-4.73-11-10.23,0-7.15,5.39-12.43,25.85-17.38l.11-4.84c.44-11-4.95-14.08-10.67-14.08-4.4,0-9.13,2.75-9.13,4.07,0,.77,2.75,2.53,2.75,5.5,0,2.2-1.87,4.29-4.73,4.29s-4.73-1.65-4.73-4.29c0-5.5,12.65-12.1,21.01-12.1,9.13,0,13.86,3.41,13.2,16.06l-1.1,23.76c-.22,3.63,1.21,4.95,3.63,4.95,1.76,0,3.41-1.43,4.95-2.97l.55.33c-1.98,2.42-5.17,7.04-9.68,7.04-3.85,0-6.6-2.97-6.93-7.7ZM497.47,226.52l.66-17.49c-15.62,3.74-18.04,8.47-18.04,13.86,0,4.95,3.19,8.14,7.48,8.14,3.63,0,6.93-1.54,9.9-4.51Z"/>
  <path d="M531.57,225.31l.66-33.22-8.58-.11.33-.88,15.18-12.98.99.11-.11,9.79h14.63l-1.54,3.85h-13.09l-.77,32.56c-.11,4.73,2.75,7.04,7.04,7.04s6.93-2.2,9.46-4.29l.55.33c-4.4,4.4-8.8,8.47-14.52,8.47-5.39,0-10.34-2.42-10.23-10.67Z"/>
  <path d="M569.41,233.89l1.98-.11c3.41-.22,4.62-.33,4.62-1.65v-32.01c0-6.71-.77-8.03-4.51-8.58l-2.53-.44.11-.44,14.63-3.85v45.54c0,.88.66,1.1,5.5,1.43l1.54.11.33.66h-22l.33-.66ZM573.37,171.41c0-2.2,1.65-5.5,5.5-5.5s5.39,3.3,5.39,5.5-1.65,5.39-5.39,5.39-5.5-3.19-5.5-5.39Z"/>
  <path d="M604.72,211.45c0-13.75,10.67-24.97,24.64-24.97s24.53,10.67,24.53,24.53-10.67,24.97-24.53,24.97-24.64-10.67-24.64-24.53ZM644.65,212c0-8.47-1.87-16.39-6.05-20.57-2.42-2.31-5.5-4.07-9.46-4.07-9.46,0-15.29,10.89-15.29,22.66,0,9.02,1.98,17.05,6.27,21.23,2.42,2.42,5.61,3.85,9.35,3.85,9.02,0,15.18-10.78,15.18-23.1Z"/>
  <path d="M668.74,233.89l1.98-.11c3.41-.22,4.62-.33,4.62-1.65v-31.9c0-6.82-.77-8.14-4.51-8.69l-2.53-.44.11-.44,14.74-3.85-.33,9.46.33.22c4.18-3.63,10.78-9.9,18.59-9.9,3.41,0,6.27.99,8.25,3.08,2.42,2.42,3.52,5.94,3.52,10.67v31.9c0,.66,0,1.1,5.5,1.54l1.54.11.33.66h-21.89l.33-.66,1.98-.11c3.85-.22,4.51-.77,4.51-1.65v-30.36c0-6.49-3.3-9.68-9.68-9.68-5.17,0-9.57,2.42-13.09,5.72v34.54c0,.88.66,1.1,5.5,1.43l1.54.11.33.66h-22l.33-.66Z"/>
</svg>